<svg width="1363" height="163" viewBox="0 0 1363 163" fill="none" xmlns="http://www.w3.org/2000/svg">
<path d="M0 15C0 6.71573 6.71573 0 15 0H37V163H15C6.71573 163 0 156.284 0 148V15Z" fill="#424242"/>
<rect width="1097" height="163" transform="translate(37)" fill="#F0F0F0"/>
<path d="M101.168 54.918H96.8203V52.1758H101.168C101.84 52.1758 102.387 52.0664 102.809 51.8477C103.23 51.6211 103.539 51.3086 103.734 50.9102C103.93 50.5117 104.027 50.0625 104.027 49.5625C104.027 49.0547 103.93 48.582 103.734 48.1445C103.539 47.707 103.23 47.3555 102.809 47.0898C102.387 46.8242 101.84 46.6914 101.168 46.6914H98.0391V61H94.5234V43.9375H101.168C102.504 43.9375 103.648 44.1797 104.602 44.6641C105.562 45.1406 106.297 45.8008 106.805 46.6445C107.312 47.4883 107.566 48.4531 107.566 49.5391C107.566 50.6406 107.312 51.5938 106.805 52.3984C106.297 53.2031 105.562 53.8242 104.602 54.2617C103.648 54.6992 102.504 54.918 101.168 54.918ZM116.484 58.1406V52.4922C116.484 52.0859 116.418 51.7383 116.285 51.4492C116.152 51.1523 115.945 50.9219 115.664 50.7578C115.391 50.5938 115.035 50.5117 114.598 50.5117C114.223 50.5117 113.898 50.5781 113.625 50.7109C113.352 50.8359 113.141 51.0195 112.992 51.2617C112.844 51.4961 112.77 51.7734 112.77 52.0938H109.395C109.395 51.5547 109.52 51.043 109.77 50.5586C110.02 50.0742 110.383 49.6484 110.859 49.2812C111.336 48.9062 111.902 48.6133 112.559 48.4023C113.223 48.1914 113.965 48.0859 114.785 48.0859C115.77 48.0859 116.645 48.25 117.41 48.5781C118.176 48.9062 118.777 49.3984 119.215 50.0547C119.66 50.7109 119.883 51.5312 119.883 52.5156V57.9414C119.883 58.6367 119.926 59.207 120.012 59.6523C120.098 60.0898 120.223 60.4727 120.387 60.8008V61H116.977C116.812 60.6562 116.688 60.2266 116.602 59.7109C116.523 59.1875 116.484 58.6641 116.484 58.1406ZM116.93 53.2773L116.953 55.1875H115.066C114.621 55.1875 114.234 55.2383 113.906 55.3398C113.578 55.4414 113.309 55.5859 113.098 55.7734C112.887 55.9531 112.73 56.1641 112.629 56.4062C112.535 56.6484 112.488 56.9141 112.488 57.2031C112.488 57.4922 112.555 57.7539 112.688 57.9883C112.82 58.2148 113.012 58.3945 113.262 58.5273C113.512 58.6523 113.805 58.7148 114.141 58.7148C114.648 58.7148 115.09 58.6133 115.465 58.4102C115.84 58.207 116.129 57.957 116.332 57.6602C116.543 57.3633 116.652 57.082 116.66 56.8164L117.551 58.2461C117.426 58.5664 117.254 58.8984 117.035 59.2422C116.824 59.5859 116.555 59.9102 116.227 60.2148C115.898 60.5117 115.504 60.7578 115.043 60.9531C114.582 61.1406 114.035 61.2344 113.402 61.2344C112.598 61.2344 111.867 61.0742 111.211 60.7539C110.562 60.4258 110.047 59.9766 109.664 59.4062C109.289 58.8281 109.102 58.1719 109.102 57.4375C109.102 56.7734 109.227 56.1836 109.477 55.668C109.727 55.1523 110.094 54.7188 110.578 54.3672C111.07 54.0078 111.684 53.7383 112.418 53.5586C113.152 53.3711 114.004 53.2773 114.973 53.2773H116.93ZM125.859 51.0859V61H122.484V48.3203H125.66L125.859 51.0859ZM129.68 48.2383L129.621 51.3672C129.457 51.3438 129.258 51.3242 129.023 51.3086C128.797 51.2852 128.59 51.2734 128.402 51.2734C127.926 51.2734 127.512 51.3359 127.16 51.4609C126.816 51.5781 126.527 51.7539 126.293 51.9883C126.066 52.2227 125.895 52.5078 125.777 52.8438C125.668 53.1797 125.605 53.5625 125.59 53.9922L124.91 53.7812C124.91 52.9609 124.992 52.207 125.156 51.5195C125.32 50.8242 125.559 50.2188 125.871 49.7031C126.191 49.1875 126.582 48.7891 127.043 48.5078C127.504 48.2266 128.031 48.0859 128.625 48.0859C128.812 48.0859 129.004 48.1016 129.199 48.1328C129.395 48.1562 129.555 48.1914 129.68 48.2383ZM137.719 58.1406V52.4922C137.719 52.0859 137.652 51.7383 137.52 51.4492C137.387 51.1523 137.18 50.9219 136.898 50.7578C136.625 50.5938 136.27 50.5117 135.832 50.5117C135.457 50.5117 135.133 50.5781 134.859 50.7109C134.586 50.8359 134.375 51.0195 134.227 51.2617C134.078 51.4961 134.004 51.7734 134.004 52.0938H130.629C130.629 51.5547 130.754 51.043 131.004 50.5586C131.254 50.0742 131.617 49.6484 132.094 49.2812C132.57 48.9062 133.137 48.6133 133.793 48.4023C134.457 48.1914 135.199 48.0859 136.02 48.0859C137.004 48.0859 137.879 48.25 138.645 48.5781C139.41 48.9062 140.012 49.3984 140.449 50.0547C140.895 50.7109 141.117 51.5312 141.117 52.5156V57.9414C141.117 58.6367 141.16 59.207 141.246 59.6523C141.332 60.0898 141.457 60.4727 141.621 60.8008V61H138.211C138.047 60.6562 137.922 60.2266 137.836 59.7109C137.758 59.1875 137.719 58.6641 137.719 58.1406ZM138.164 53.2773L138.188 55.1875H136.301C135.855 55.1875 135.469 55.2383 135.141 55.3398C134.812 55.4414 134.543 55.5859 134.332 55.7734C134.121 55.9531 133.965 56.1641 133.863 56.4062C133.77 56.6484 133.723 56.9141 133.723 57.2031C133.723 57.4922 133.789 57.7539 133.922 57.9883C134.055 58.2148 134.246 58.3945 134.496 58.5273C134.746 58.6523 135.039 58.7148 135.375 58.7148C135.883 58.7148 136.324 58.6133 136.699 58.4102C137.074 58.207 137.363 57.957 137.566 57.6602C137.777 57.3633 137.887 57.082 137.895 56.8164L138.785 58.2461C138.66 58.5664 138.488 58.8984 138.27 59.2422C138.059 59.5859 137.789 59.9102 137.461 60.2148C137.133 60.5117 136.738 60.7578 136.277 60.9531C135.816 61.1406 135.27 61.2344 134.637 61.2344C133.832 61.2344 133.102 61.0742 132.445 60.7539C131.797 60.4258 131.281 59.9766 130.898 59.4062C130.523 58.8281 130.336 58.1719 130.336 57.4375C130.336 56.7734 130.461 56.1836 130.711 55.668C130.961 55.1523 131.328 54.7188 131.812 54.3672C132.305 54.0078 132.918 53.7383 133.652 53.5586C134.387 53.3711 135.238 53.2773 136.207 53.2773H138.164ZM147.281 43V61H143.895V43H147.281ZM153.633 43V61H150.246V43H153.633ZM163.266 58.1406V52.4922C163.266 52.0859 163.199 51.7383 163.066 51.4492C162.934 51.1523 162.727 50.9219 162.445 50.7578C162.172 50.5938 161.816 50.5117 161.379 50.5117C161.004 50.5117 160.68 50.5781 160.406 50.7109C160.133 50.8359 159.922 51.0195 159.773 51.2617C159.625 51.4961 159.551 51.7734 159.551 52.0938H156.176C156.176 51.5547 156.301 51.043 156.551 50.5586C156.801 50.0742 157.164 49.6484 157.641 49.2812C158.117 48.9062 158.684 48.6133 159.34 48.4023C160.004 48.1914 160.746 48.0859 161.566 48.0859C162.551 48.0859 163.426 48.25 164.191 48.5781C164.957 48.9062 165.559 49.3984 165.996 50.0547C166.441 50.7109 166.664 51.5312 166.664 52.5156V57.9414C166.664 58.6367 166.707 59.207 166.793 59.6523C166.879 60.0898 167.004 60.4727 167.168 60.8008V61H163.758C163.594 60.6562 163.469 60.2266 163.383 59.7109C163.305 59.1875 163.266 58.6641 163.266 58.1406ZM163.711 53.2773L163.734 55.1875H161.848C161.402 55.1875 161.016 55.2383 160.688 55.3398C160.359 55.4414 160.09 55.5859 159.879 55.7734C159.668 55.9531 159.512 56.1641 159.41 56.4062C159.316 56.6484 159.27 56.9141 159.27 57.2031C159.27 57.4922 159.336 57.7539 159.469 57.9883C159.602 58.2148 159.793 58.3945 160.043 58.5273C160.293 58.6523 160.586 58.7148 160.922 58.7148C161.43 58.7148 161.871 58.6133 162.246 58.4102C162.621 58.207 162.91 57.957 163.113 57.6602C163.324 57.3633 163.434 57.082 163.441 56.8164L164.332 58.2461C164.207 58.5664 164.035 58.8984 163.816 59.2422C163.605 59.5859 163.336 59.9102 163.008 60.2148C162.68 60.5117 162.285 60.7578 161.824 60.9531C161.363 61.1406 160.816 61.2344 160.184 61.2344C159.379 61.2344 158.648 61.0742 157.992 60.7539C157.344 60.4258 156.828 59.9766 156.445 59.4062C156.07 58.8281 155.883 58.1719 155.883 57.4375C155.883 56.7734 156.008 56.1836 156.258 55.668C156.508 55.1523 156.875 54.7188 157.359 54.3672C157.852 54.0078 158.465 53.7383 159.199 53.5586C159.934 53.3711 160.785 53.2773 161.754 53.2773H163.711ZM171.984 48.3203L174.082 52.1758L176.238 48.3203H179.836L176.25 54.5195L180 61H176.391L174.105 56.9219L171.82 61H168.211L171.961 54.5195L168.375 48.3203H171.984ZM188.133 52.3516V55H181.512V52.3516H188.133ZM195.27 58.293L198.668 43.9375H200.566L201 46.3281L197.379 61H195.34L195.27 58.293ZM193.523 43.9375L196.336 58.293L196.102 61H193.828L190.043 43.9375H193.523ZM203.988 58.2344L206.766 43.9375H210.246L206.473 61H204.199L203.988 58.2344ZM201.633 43.9375L205.055 58.3516L204.961 61H202.922L199.277 46.3164L199.746 43.9375H201.633ZM217.406 61.2344C216.422 61.2344 215.539 61.0781 214.758 60.7656C213.977 60.4453 213.312 60.0039 212.766 59.4414C212.227 58.8789 211.812 58.2266 211.523 57.4844C211.234 56.7344 211.09 55.9375 211.09 55.0938V54.625C211.09 53.6641 211.227 52.7852 211.5 51.9883C211.773 51.1914 212.164 50.5 212.672 49.9141C213.188 49.3281 213.812 48.8789 214.547 48.5664C215.281 48.2461 216.109 48.0859 217.031 48.0859C217.93 48.0859 218.727 48.2344 219.422 48.5312C220.117 48.8281 220.699 49.25 221.168 49.7969C221.645 50.3438 222.004 51 222.246 51.7656C222.488 52.5234 222.609 53.3672 222.609 54.2969V55.7031H212.531V53.4531H219.293V53.1953C219.293 52.7266 219.207 52.3086 219.035 51.9414C218.871 51.5664 218.621 51.2695 218.285 51.0508C217.949 50.832 217.52 50.7227 216.996 50.7227C216.551 50.7227 216.168 50.8203 215.848 51.0156C215.527 51.2109 215.266 51.4844 215.062 51.8359C214.867 52.1875 214.719 52.6016 214.617 53.0781C214.523 53.5469 214.477 54.0625 214.477 54.625V55.0938C214.477 55.6016 214.547 56.0703 214.688 56.5C214.836 56.9297 215.043 57.3008 215.309 57.6133C215.582 57.9258 215.91 58.168 216.293 58.3398C216.684 58.5117 217.125 58.5977 217.617 58.5977C218.227 58.5977 218.793 58.4805 219.316 58.2461C219.848 58.0039 220.305 57.6406 220.688 57.1562L222.328 58.9375C222.062 59.3203 221.699 59.6875 221.238 60.0391C220.785 60.3906 220.238 60.6797 219.598 60.9062C218.957 61.125 218.227 61.2344 217.406 61.2344ZM224.531 43H227.906V58.0938L227.566 61H224.531V43ZM235.934 54.5312V54.7773C235.934 55.7227 235.832 56.5898 235.629 57.3789C235.434 58.168 235.129 58.8516 234.715 59.4297C234.301 60 233.785 60.4453 233.168 60.7656C232.559 61.0781 231.84 61.2344 231.012 61.2344C230.238 61.2344 229.566 61.0781 228.996 60.7656C228.434 60.4531 227.961 60.0117 227.578 59.4414C227.195 58.8711 226.887 58.2031 226.652 57.4375C226.418 56.6719 226.242 55.8359 226.125 54.9297V54.3906C226.242 53.4844 226.418 52.6484 226.652 51.8828C226.887 51.1172 227.195 50.4492 227.578 49.8789C227.961 49.3086 228.434 48.8672 228.996 48.5547C229.559 48.2422 230.223 48.0859 230.988 48.0859C231.824 48.0859 232.551 48.2461 233.168 48.5664C233.793 48.8789 234.309 49.3242 234.715 49.9023C235.129 50.4727 235.434 51.1523 235.629 51.9414C235.832 52.7227 235.934 53.5859 235.934 54.5312ZM232.559 54.7773V54.5312C232.559 54.0156 232.52 53.5312 232.441 53.0781C232.371 52.6172 232.246 52.2148 232.066 51.8711C231.887 51.5195 231.641 51.2422 231.328 51.0391C231.023 50.8359 230.629 50.7344 230.145 50.7344C229.684 50.7344 229.293 50.8125 228.973 50.9688C228.652 51.125 228.387 51.3438 228.176 51.625C227.973 51.9062 227.82 52.2422 227.719 52.6328C227.617 53.0156 227.555 53.4375 227.531 53.8984V55.4336C227.555 56.0508 227.656 56.5977 227.836 57.0742C228.023 57.543 228.305 57.9141 228.68 58.1875C229.062 58.4531 229.559 58.5859 230.168 58.5859C230.645 58.5859 231.039 58.4922 231.352 58.3047C231.664 58.1172 231.906 57.8516 232.078 57.5078C232.258 57.1641 232.383 56.7617 232.453 56.3008C232.523 55.832 232.559 55.3242 232.559 54.7773ZM244.887 57.4961C244.887 57.2539 244.816 57.0352 244.676 56.8398C244.535 56.6445 244.273 56.4648 243.891 56.3008C243.516 56.1289 242.973 55.9727 242.262 55.832C241.621 55.6914 241.023 55.5156 240.469 55.3047C239.922 55.0859 239.445 54.8242 239.039 54.5195C238.641 54.2148 238.328 53.8555 238.102 53.4414C237.875 53.0195 237.762 52.5391 237.762 52C237.762 51.4688 237.875 50.9688 238.102 50.5C238.336 50.0312 238.668 49.6172 239.098 49.2578C239.535 48.8906 240.066 48.6055 240.691 48.4023C241.324 48.1914 242.035 48.0859 242.824 48.0859C243.926 48.0859 244.871 48.2617 245.66 48.6133C246.457 48.9648 247.066 49.4492 247.488 50.0664C247.918 50.6758 248.133 51.3711 248.133 52.1523H244.758C244.758 51.8242 244.688 51.5312 244.547 51.2734C244.414 51.0078 244.203 50.8008 243.914 50.6523C243.633 50.4961 243.266 50.418 242.812 50.418C242.438 50.418 242.113 50.4844 241.84 50.6172C241.566 50.7422 241.355 50.9141 241.207 51.1328C241.066 51.3438 240.996 51.5781 240.996 51.8359C240.996 52.0312 241.035 52.207 241.113 52.3633C241.199 52.5117 241.336 52.6484 241.523 52.7734C241.711 52.8984 241.953 53.0156 242.25 53.125C242.555 53.2266 242.93 53.3203 243.375 53.4062C244.289 53.5938 245.105 53.8398 245.824 54.1445C246.543 54.4414 247.113 54.8477 247.535 55.3633C247.957 55.8711 248.168 56.5391 248.168 57.3672C248.168 57.9297 248.043 58.4453 247.793 58.9141C247.543 59.3828 247.184 59.793 246.715 60.1445C246.246 60.4883 245.684 60.7578 245.027 60.9531C244.379 61.1406 243.648 61.2344 242.836 61.2344C241.656 61.2344 240.656 61.0234 239.836 60.6016C239.023 60.1797 238.406 59.6445 237.984 58.9961C237.57 58.3398 237.363 57.668 237.363 56.9805H240.562C240.578 57.4414 240.695 57.8125 240.914 58.0938C241.141 58.375 241.426 58.5781 241.77 58.7031C242.121 58.8281 242.5 58.8906 242.906 58.8906C243.344 58.8906 243.707 58.832 243.996 58.7148C244.285 58.5898 244.504 58.4258 244.652 58.2227C244.809 58.0117 244.887 57.7695 244.887 57.4961ZM253.922 48.3203V61H250.535V48.3203H253.922ZM250.324 45.0156C250.324 44.5234 250.496 44.1172 250.84 43.7969C251.184 43.4766 251.645 43.3164 252.223 43.3164C252.793 43.3164 253.25 43.4766 253.594 43.7969C253.945 44.1172 254.121 44.5234 254.121 45.0156C254.121 45.5078 253.945 45.9141 253.594 46.2344C253.25 46.5547 252.793 46.7148 252.223 46.7148C251.645 46.7148 251.184 46.5547 250.84 46.2344C250.496 45.9141 250.324 45.5078 250.324 45.0156ZM262.922 48.3203V50.7109H255.539V48.3203H262.922ZM257.367 45.1914H260.742V57.1797C260.742 57.5469 260.789 57.8281 260.883 58.0234C260.984 58.2188 261.133 58.3555 261.328 58.4336C261.523 58.5039 261.77 58.5391 262.066 58.5391C262.277 58.5391 262.465 58.5312 262.629 58.5156C262.801 58.4922 262.945 58.4688 263.062 58.4453L263.074 60.9297C262.785 61.0234 262.473 61.0977 262.137 61.1523C261.801 61.207 261.43 61.2344 261.023 61.2344C260.281 61.2344 259.633 61.1133 259.078 60.8711C258.531 60.6211 258.109 60.2227 257.812 59.6758C257.516 59.1289 257.367 58.4102 257.367 57.5195V45.1914ZM270.68 61.2344C269.695 61.2344 268.812 61.0781 268.031 60.7656C267.25 60.4453 266.586 60.0039 266.039 59.4414C265.5 58.8789 265.086 58.2266 264.797 57.4844C264.508 56.7344 264.363 55.9375 264.363 55.0938V54.625C264.363 53.6641 264.5 52.7852 264.773 51.9883C265.047 51.1914 265.438 50.5 265.945 49.9141C266.461 49.3281 267.086 48.8789 267.82 48.5664C268.555 48.2461 269.383 48.0859 270.305 48.0859C271.203 48.0859 272 48.2344 272.695 48.5312C273.391 48.8281 273.973 49.25 274.441 49.7969C274.918 50.3438 275.277 51 275.52 51.7656C275.762 52.5234 275.883 53.3672 275.883 54.2969V55.7031H265.805V53.4531H272.566V53.1953C272.566 52.7266 272.48 52.3086 272.309 51.9414C272.145 51.5664 271.895 51.2695 271.559 51.0508C271.223 50.832 270.793 50.7227 270.27 50.7227C269.824 50.7227 269.441 50.8203 269.121 51.0156C268.801 51.2109 268.539 51.4844 268.336 51.8359C268.141 52.1875 267.992 52.6016 267.891 53.0781C267.797 53.5469 267.75 54.0625 267.75 54.625V55.0938C267.75 55.6016 267.82 56.0703 267.961 56.5C268.109 56.9297 268.316 57.3008 268.582 57.6133C268.855 57.9258 269.184 58.168 269.566 58.3398C269.957 58.5117 270.398 58.5977 270.891 58.5977C271.5 58.5977 272.066 58.4805 272.59 58.2461C273.121 58.0039 273.578 57.6406 273.961 57.1562L275.602 58.9375C275.336 59.3203 274.973 59.6875 274.512 60.0391C274.059 60.3906 273.512 60.6797 272.871 60.9062C272.23 61.125 271.5 61.2344 270.68 61.2344Z" fill="#888888"/>
<path d="M113.18 109.93C113.18 109.398 113.102 108.922 112.945 108.5C112.789 108.062 112.5 107.656 112.078 107.281C111.656 106.906 111.047 106.531 110.25 106.156C109.469 105.766 108.438 105.359 107.156 104.938C105.656 104.438 104.211 103.875 102.82 103.25C101.43 102.609 100.188 101.867 99.0938 101.023C98 100.164 97.1328 99.1641 96.4922 98.0234C95.8516 96.8672 95.5312 95.5234 95.5312 93.9922C95.5312 92.5234 95.8594 91.2031 96.5156 90.0312C97.1719 88.8438 98.0859 87.8359 99.2578 87.0078C100.445 86.1641 101.836 85.5234 103.43 85.0859C105.023 84.6328 106.766 84.4062 108.656 84.4062C111.156 84.4062 113.359 84.8438 115.266 85.7188C117.188 86.5781 118.688 87.8047 119.766 89.3984C120.859 90.9766 121.406 92.8438 121.406 95H113.227C113.227 94.1406 113.047 93.3828 112.688 92.7266C112.344 92.0703 111.82 91.5547 111.117 91.1797C110.414 90.8047 109.531 90.6172 108.469 90.6172C107.438 90.6172 106.57 90.7734 105.867 91.0859C105.164 91.3984 104.633 91.8203 104.273 92.3516C103.914 92.8672 103.734 93.4375 103.734 94.0625C103.734 94.5781 103.875 95.0469 104.156 95.4688C104.453 95.875 104.867 96.2578 105.398 96.6172C105.945 96.9766 106.602 97.3203 107.367 97.6484C108.148 97.9766 109.023 98.2969 109.992 98.6094C111.805 99.1875 113.414 99.8359 114.82 100.555C116.242 101.258 117.438 102.062 118.406 102.969C119.391 103.859 120.133 104.875 120.633 106.016C121.148 107.156 121.406 108.445 121.406 109.883C121.406 111.414 121.109 112.773 120.516 113.961C119.922 115.148 119.07 116.156 117.961 116.984C116.852 117.797 115.523 118.414 113.977 118.836C112.43 119.258 110.703 119.469 108.797 119.469C107.047 119.469 105.32 119.25 103.617 118.812C101.93 118.359 100.398 117.672 99.0234 116.75C97.6484 115.812 96.5469 114.617 95.7188 113.164C94.9062 111.695 94.5 109.953 94.5 107.938H102.75C102.75 108.938 102.883 109.781 103.148 110.469C103.414 111.156 103.805 111.711 104.32 112.133C104.836 112.539 105.469 112.836 106.219 113.023C106.969 113.195 107.828 113.281 108.797 113.281C109.844 113.281 110.688 113.133 111.328 112.836C111.969 112.523 112.438 112.117 112.734 111.617C113.031 111.102 113.18 110.539 113.18 109.93ZM133.031 99.0547V119H125.133V93.6406H132.539L133.031 99.0547ZM132.094 105.453L130.242 105.5C130.242 103.562 130.477 101.836 130.945 100.32C131.414 98.7891 132.078 97.4922 132.938 96.4297C133.797 95.3672 134.82 94.5625 136.008 94.0156C137.211 93.4531 138.547 93.1719 140.016 93.1719C141.188 93.1719 142.258 93.3438 143.227 93.6875C144.211 94.0312 145.055 94.5859 145.758 95.3516C146.477 96.1172 147.023 97.1328 147.398 98.3984C147.789 99.6484 147.984 101.195 147.984 103.039V119H140.039V103.016C140.039 102 139.898 101.227 139.617 100.695C139.336 100.148 138.93 99.7734 138.398 99.5703C137.867 99.3672 137.219 99.2656 136.453 99.2656C135.641 99.2656 134.953 99.4219 134.391 99.7344C133.828 100.047 133.375 100.484 133.031 101.047C132.703 101.594 132.461 102.242 132.305 102.992C132.164 103.742 132.094 104.562 132.094 105.453ZM165.539 112.625V102.172C165.539 101.453 165.438 100.836 165.234 100.32C165.031 99.8047 164.711 99.4062 164.273 99.125C163.836 98.8281 163.25 98.6797 162.516 98.6797C161.922 98.6797 161.414 98.7812 160.992 98.9844C160.57 99.1875 160.25 99.4922 160.031 99.8984C159.812 100.305 159.703 100.82 159.703 101.445H151.805C151.805 100.273 152.062 99.1875 152.578 98.1875C153.109 97.1719 153.859 96.2891 154.828 95.5391C155.812 94.7891 156.984 94.2109 158.344 93.8047C159.719 93.3828 161.25 93.1719 162.938 93.1719C164.953 93.1719 166.75 93.5078 168.328 94.1797C169.922 94.8516 171.18 95.8594 172.102 97.2031C173.023 98.5312 173.484 100.203 173.484 102.219V112.602C173.484 114.258 173.578 115.516 173.766 116.375C173.953 117.219 174.219 117.961 174.562 118.602V119H166.641C166.266 118.219 165.984 117.266 165.797 116.141C165.625 115 165.539 113.828 165.539 112.625ZM166.5 103.508L166.547 107.727H163.055C162.32 107.727 161.695 107.828 161.18 108.031C160.68 108.234 160.273 108.516 159.961 108.875C159.664 109.219 159.445 109.609 159.305 110.047C159.18 110.484 159.117 110.945 159.117 111.43C159.117 111.898 159.227 112.32 159.445 112.695C159.68 113.055 159.992 113.336 160.383 113.539C160.773 113.742 161.211 113.844 161.695 113.844C162.57 113.844 163.312 113.68 163.922 113.352C164.547 113.008 165.023 112.594 165.352 112.109C165.68 111.625 165.844 111.172 165.844 110.75L167.578 113.984C167.266 114.609 166.906 115.242 166.5 115.883C166.109 116.523 165.617 117.117 165.023 117.664C164.445 118.195 163.734 118.633 162.891 118.977C162.047 119.305 161.023 119.469 159.82 119.469C158.258 119.469 156.82 119.148 155.508 118.508C154.211 117.867 153.172 116.977 152.391 115.836C151.609 114.68 151.219 113.352 151.219 111.852C151.219 110.539 151.453 109.367 151.922 108.336C152.406 107.305 153.133 106.43 154.102 105.711C155.07 104.992 156.305 104.445 157.805 104.07C159.305 103.695 161.07 103.508 163.102 103.508H166.5ZM185.836 98.5156V128.75H177.938V93.6406H185.297L185.836 98.5156ZM201.398 106.016V106.508C201.398 108.352 201.188 110.062 200.766 111.641C200.344 113.219 199.719 114.594 198.891 115.766C198.062 116.938 197.031 117.852 195.797 118.508C194.578 119.148 193.164 119.469 191.555 119.469C190.039 119.469 188.734 119.133 187.641 118.461C186.547 117.789 185.633 116.859 184.898 115.672C184.164 114.484 183.57 113.125 183.117 111.594C182.664 110.062 182.305 108.445 182.039 106.742V106.109C182.305 104.281 182.664 102.586 183.117 101.023C183.57 99.4453 184.164 98.0703 184.898 96.8984C185.633 95.7266 186.539 94.8125 187.617 94.1562C188.711 93.5 190.016 93.1719 191.531 93.1719C193.141 93.1719 194.555 93.4766 195.773 94.0859C197.008 94.6953 198.039 95.5703 198.867 96.7109C199.711 97.8359 200.344 99.1875 200.766 100.766C201.188 102.344 201.398 104.094 201.398 106.016ZM193.5 106.508V106.016C193.5 105.031 193.43 104.133 193.289 103.32C193.148 102.492 192.922 101.773 192.609 101.164C192.312 100.555 191.914 100.086 191.414 99.7578C190.914 99.4297 190.297 99.2656 189.562 99.2656C188.719 99.2656 188.008 99.3984 187.43 99.6641C186.867 99.9141 186.414 100.305 186.07 100.836C185.742 101.352 185.508 102 185.367 102.781C185.242 103.547 185.188 104.445 185.203 105.477V107.398C185.172 108.586 185.289 109.633 185.555 110.539C185.82 111.43 186.281 112.125 186.938 112.625C187.594 113.125 188.484 113.375 189.609 113.375C190.359 113.375 190.984 113.203 191.484 112.859C191.984 112.5 192.383 112.008 192.68 111.383C192.977 110.742 193.188 110.008 193.312 109.18C193.438 108.352 193.5 107.461 193.5 106.508ZM218.203 111.875C218.203 111.438 218.055 111.062 217.758 110.75C217.477 110.422 216.977 110.125 216.258 109.859C215.539 109.578 214.531 109.297 213.234 109.016C212 108.75 210.836 108.398 209.742 107.961C208.664 107.523 207.719 106.992 206.906 106.367C206.094 105.742 205.453 105 204.984 104.141C204.531 103.281 204.305 102.297 204.305 101.188C204.305 100.109 204.531 99.0938 204.984 98.1406C205.453 97.1719 206.133 96.3203 207.023 95.5859C207.93 94.8359 209.031 94.25 210.328 93.8281C211.625 93.3906 213.102 93.1719 214.758 93.1719C217.039 93.1719 219.008 93.5234 220.664 94.2266C222.32 94.9141 223.594 95.8828 224.484 97.1328C225.391 98.3672 225.844 99.7969 225.844 101.422H217.945C217.945 100.781 217.836 100.234 217.617 99.7812C217.414 99.3281 217.078 98.9844 216.609 98.75C216.141 98.5 215.516 98.375 214.734 98.375C214.188 98.375 213.688 98.4766 213.234 98.6797C212.797 98.8828 212.445 99.1641 212.18 99.5234C211.914 99.8828 211.781 100.305 211.781 100.789C211.781 101.133 211.859 101.445 212.016 101.727C212.188 101.992 212.445 102.242 212.789 102.477C213.133 102.695 213.57 102.898 214.102 103.086C214.633 103.258 215.273 103.414 216.023 103.555C217.727 103.867 219.32 104.312 220.805 104.891C222.289 105.469 223.492 106.289 224.414 107.352C225.352 108.414 225.82 109.844 225.82 111.641C225.82 112.766 225.562 113.805 225.047 114.758C224.531 115.695 223.789 116.523 222.82 117.242C221.852 117.945 220.688 118.492 219.328 118.883C217.969 119.273 216.438 119.469 214.734 119.469C212.312 119.469 210.266 119.039 208.594 118.18C206.922 117.305 205.656 116.211 204.797 114.898C203.953 113.57 203.531 112.227 203.531 110.867H210.891C210.922 111.648 211.109 112.289 211.453 112.789C211.812 113.289 212.289 113.656 212.883 113.891C213.477 114.125 214.164 114.242 214.945 114.242C215.664 114.242 216.258 114.141 216.727 113.938C217.211 113.734 217.578 113.461 217.828 113.117C218.078 112.758 218.203 112.344 218.203 111.875ZM237.258 83V119H229.359V83H237.258ZM236.32 105.453L234.469 105.5C234.469 103.719 234.688 102.078 235.125 100.578C235.562 99.0781 236.188 97.7734 237 96.6641C237.812 95.5547 238.789 94.6953 239.93 94.0859C241.07 93.4766 242.336 93.1719 243.727 93.1719C244.977 93.1719 246.117 93.3516 247.148 93.7109C248.195 94.0703 249.094 94.6484 249.844 95.4453C250.609 96.2422 251.195 97.2812 251.602 98.5625C252.023 99.8438 252.234 101.406 252.234 103.25V119H244.289V103.203C244.289 102.172 244.141 101.375 243.844 100.812C243.562 100.234 243.156 99.8359 242.625 99.6172C242.094 99.3828 241.445 99.2656 240.68 99.2656C239.758 99.2656 239.008 99.4219 238.43 99.7344C237.852 100.047 237.406 100.484 237.094 101.047C236.797 101.594 236.594 102.242 236.484 102.992C236.375 103.742 236.32 104.562 236.32 105.453ZM255.633 106.578V106.086C255.633 104.227 255.898 102.516 256.43 100.953C256.961 99.375 257.742 98.0078 258.773 96.8516C259.805 95.6953 261.078 94.7969 262.594 94.1562C264.109 93.5 265.859 93.1719 267.844 93.1719C269.844 93.1719 271.602 93.5 273.117 94.1562C274.648 94.7969 275.93 95.6953 276.961 96.8516C277.992 98.0078 278.773 99.375 279.305 100.953C279.836 102.516 280.102 104.227 280.102 106.086V106.578C280.102 108.422 279.836 110.133 279.305 111.711C278.773 113.273 277.992 114.641 276.961 115.812C275.93 116.969 274.656 117.867 273.141 118.508C271.625 119.148 269.875 119.469 267.891 119.469C265.906 119.469 264.148 119.148 262.617 118.508C261.086 117.867 259.805 116.969 258.773 115.812C257.742 114.641 256.961 113.273 256.43 111.711C255.898 110.133 255.633 108.422 255.633 106.578ZM263.531 106.086V106.578C263.531 107.531 263.602 108.422 263.742 109.25C263.883 110.078 264.117 110.805 264.445 111.43C264.773 112.039 265.219 112.516 265.781 112.859C266.344 113.203 267.047 113.375 267.891 113.375C268.719 113.375 269.406 113.203 269.953 112.859C270.516 112.516 270.961 112.039 271.289 111.43C271.617 110.805 271.852 110.078 271.992 109.25C272.133 108.422 272.203 107.531 272.203 106.578V106.086C272.203 105.164 272.133 104.297 271.992 103.484C271.852 102.656 271.617 101.93 271.289 101.305C270.961 100.664 270.516 100.164 269.953 99.8047C269.391 99.4453 268.688 99.2656 267.844 99.2656C267.016 99.2656 266.32 99.4453 265.758 99.8047C265.211 100.164 264.773 100.664 264.445 101.305C264.117 101.93 263.883 102.656 263.742 103.484C263.602 104.297 263.531 105.164 263.531 106.086ZM296.977 93.6406V99.125H281.695V93.6406H296.977ZM284.906 87.3359H292.805V110.727C292.805 111.398 292.883 111.922 293.039 112.297C293.195 112.656 293.461 112.914 293.836 113.07C294.227 113.211 294.742 113.281 295.383 113.281C295.836 113.281 296.211 113.273 296.508 113.258C296.805 113.227 297.086 113.188 297.352 113.141V118.789C296.68 119.008 295.977 119.172 295.242 119.281C294.508 119.406 293.727 119.469 292.898 119.469C291.211 119.469 289.766 119.203 288.562 118.672C287.375 118.141 286.469 117.305 285.844 116.164C285.219 115.023 284.906 113.539 284.906 111.711V87.3359ZM313.406 111.875C313.406 111.438 313.258 111.062 312.961 110.75C312.68 110.422 312.18 110.125 311.461 109.859C310.742 109.578 309.734 109.297 308.438 109.016C307.203 108.75 306.039 108.398 304.945 107.961C303.867 107.523 302.922 106.992 302.109 106.367C301.297 105.742 300.656 105 300.188 104.141C299.734 103.281 299.508 102.297 299.508 101.188C299.508 100.109 299.734 99.0938 300.188 98.1406C300.656 97.1719 301.336 96.3203 302.227 95.5859C303.133 94.8359 304.234 94.25 305.531 93.8281C306.828 93.3906 308.305 93.1719 309.961 93.1719C312.242 93.1719 314.211 93.5234 315.867 94.2266C317.523 94.9141 318.797 95.8828 319.688 97.1328C320.594 98.3672 321.047 99.7969 321.047 101.422H313.148C313.148 100.781 313.039 100.234 312.82 99.7812C312.617 99.3281 312.281 98.9844 311.812 98.75C311.344 98.5 310.719 98.375 309.938 98.375C309.391 98.375 308.891 98.4766 308.438 98.6797C308 98.8828 307.648 99.1641 307.383 99.5234C307.117 99.8828 306.984 100.305 306.984 100.789C306.984 101.133 307.062 101.445 307.219 101.727C307.391 101.992 307.648 102.242 307.992 102.477C308.336 102.695 308.773 102.898 309.305 103.086C309.836 103.258 310.477 103.414 311.227 103.555C312.93 103.867 314.523 104.312 316.008 104.891C317.492 105.469 318.695 106.289 319.617 107.352C320.555 108.414 321.023 109.844 321.023 111.641C321.023 112.766 320.766 113.805 320.25 114.758C319.734 115.695 318.992 116.523 318.023 117.242C317.055 117.945 315.891 118.492 314.531 118.883C313.172 119.273 311.641 119.469 309.938 119.469C307.516 119.469 305.469 119.039 303.797 118.18C302.125 117.305 300.859 116.211 300 114.898C299.156 113.57 298.734 112.227 298.734 110.867H306.094C306.125 111.648 306.312 112.289 306.656 112.789C307.016 113.289 307.492 113.656 308.086 113.891C308.68 114.125 309.367 114.242 310.148 114.242C310.867 114.242 311.461 114.141 311.93 113.938C312.414 113.734 312.781 113.461 313.031 113.117C313.281 112.758 313.406 112.344 313.406 111.875Z" fill="black"/>
<path d="M1134 0H1348C1356.28 0 1363 6.71573 1363 15V148C1363 156.284 1356.28 163 1348 163H1134V0Z" fill="#221891"/>
<path fill-rule="evenodd" clip-rule="evenodd" d="M1202.75 46.5018C1202.75 45.3973 1203.65 44.5018 1204.75 44.5018H1292.25C1293.35 44.5018 1294.25 45.3973 1294.25 46.5018V116.498C1294.25 117.603 1293.35 118.498 1292.25 118.498H1204.75C1203.65 118.498 1202.75 117.603 1202.75 116.498V46.5018ZM1206.75 48.5018V52.9963H1290.25V48.5018H1206.75ZM1290.25 56.9963H1235.19V114.498H1290.25V56.9963ZM1231.19 114.498V56.9963H1206.75V114.498H1231.19Z" fill="white"/>
<path fill-rule="evenodd" clip-rule="evenodd" d="M1209.72 62.3022C1209.72 61.1976 1210.62 60.3022 1211.72 60.3022H1225.72C1226.83 60.3022 1227.72 61.1976 1227.72 62.3022V81.6974C1227.72 82.802 1226.83 83.6974 1225.72 83.6974H1211.72C1210.62 83.6974 1209.72 82.802 1209.72 81.6974V62.3022ZM1213.72 64.3022V79.6974H1223.72V64.3022H1213.72ZM1239.33 63.1982C1239.33 62.0936 1240.22 61.1982 1241.33 61.1982H1284.25C1285.36 61.1982 1286.25 62.0936 1286.25 63.1982V109.407C1286.25 110.511 1285.36 111.407 1284.25 111.407H1241.33C1240.22 111.407 1239.33 110.511 1239.33 109.407V63.1982ZM1243.33 65.1982V107.407H1282.25V65.1982H1243.33ZM1209.56 93.4381C1209.56 92.3336 1210.46 91.4381 1211.56 91.4381H1220.48C1221.59 91.4381 1222.48 92.3336 1222.48 93.4381C1222.48 94.5427 1221.59 95.4381 1220.48 95.4381H1211.56C1210.46 95.4381 1209.56 94.5427 1209.56 93.4381ZM1209.56 100.438C1209.56 99.3335 1210.46 98.4381 1211.56 98.4381H1226.1C1227.21 98.4381 1228.1 99.3335 1228.1 100.438C1228.1 101.543 1227.21 102.438 1226.1 102.438H1211.56C1210.46 102.438 1209.56 101.543 1209.56 100.438ZM1209.56 107.438C1209.56 106.334 1210.46 105.438 1211.56 105.438H1220.48C1221.59 105.438 1222.48 106.334 1222.48 107.438C1222.48 108.543 1221.59 109.438 1220.48 109.438H1211.56C1210.46 109.438 1209.56 108.543 1209.56 107.438Z" fill="white"/>
</svg>
