<svg width="1363" height="163" viewBox="0 0 1363 163" fill="none" xmlns="http://www.w3.org/2000/svg">
<path d="M0 15C0 6.71573 6.71573 0 15 0H37V163H15C6.71573 163 0 156.284 0 148V15Z" fill="#424242"/>
<rect width="1097" height="163" transform="translate(37)" fill="#F0F0F0"/>
<path d="M101.168 54.918H96.8203V52.1758H101.168C101.84 52.1758 102.387 52.0664 102.809 51.8477C103.23 51.6211 103.539 51.3086 103.734 50.9102C103.93 50.5117 104.027 50.0625 104.027 49.5625C104.027 49.0547 103.93 48.582 103.734 48.1445C103.539 47.707 103.23 47.3555 102.809 47.0898C102.387 46.8242 101.84 46.6914 101.168 46.6914H98.0391V61H94.5234V43.9375H101.168C102.504 43.9375 103.648 44.1797 104.602 44.6641C105.562 45.1406 106.297 45.8008 106.805 46.6445C107.312 47.4883 107.566 48.4531 107.566 49.5391C107.566 50.6406 107.312 51.5938 106.805 52.3984C106.297 53.2031 105.562 53.8242 104.602 54.2617C103.648 54.6992 102.504 54.918 101.168 54.918ZM116.484 58.1406V52.4922C116.484 52.0859 116.418 51.7383 116.285 51.4492C116.152 51.1523 115.945 50.9219 115.664 50.7578C115.391 50.5938 115.035 50.5117 114.598 50.5117C114.223 50.5117 113.898 50.5781 113.625 50.7109C113.352 50.8359 113.141 51.0195 112.992 51.2617C112.844 51.4961 112.77 51.7734 112.77 52.0938H109.395C109.395 51.5547 109.52 51.043 109.77 50.5586C110.02 50.0742 110.383 49.6484 110.859 49.2812C111.336 48.9062 111.902 48.6133 112.559 48.4023C113.223 48.1914 113.965 48.0859 114.785 48.0859C115.77 48.0859 116.645 48.25 117.41 48.5781C118.176 48.9062 118.777 49.3984 119.215 50.0547C119.66 50.7109 119.883 51.5312 119.883 52.5156V57.9414C119.883 58.6367 119.926 59.207 120.012 59.6523C120.098 60.0898 120.223 60.4727 120.387 60.8008V61H116.977C116.812 60.6562 116.688 60.2266 116.602 59.7109C116.523 59.1875 116.484 58.6641 116.484 58.1406ZM116.93 53.2773L116.953 55.1875H115.066C114.621 55.1875 114.234 55.2383 113.906 55.3398C113.578 55.4414 113.309 55.5859 113.098 55.7734C112.887 55.9531 112.73 56.1641 112.629 56.4062C112.535 56.6484 112.488 56.9141 112.488 57.2031C112.488 57.4922 112.555 57.7539 112.688 57.9883C112.82 58.2148 113.012 58.3945 113.262 58.5273C113.512 58.6523 113.805 58.7148 114.141 58.7148C114.648 58.7148 115.09 58.6133 115.465 58.4102C115.84 58.207 116.129 57.957 116.332 57.6602C116.543 57.3633 116.652 57.082 116.66 56.8164L117.551 58.2461C117.426 58.5664 117.254 58.8984 117.035 59.2422C116.824 59.5859 116.555 59.9102 116.227 60.2148C115.898 60.5117 115.504 60.7578 115.043 60.9531C114.582 61.1406 114.035 61.2344 113.402 61.2344C112.598 61.2344 111.867 61.0742 111.211 60.7539C110.562 60.4258 110.047 59.9766 109.664 59.4062C109.289 58.8281 109.102 58.1719 109.102 57.4375C109.102 56.7734 109.227 56.1836 109.477 55.668C109.727 55.1523 110.094 54.7188 110.578 54.3672C111.07 54.0078 111.684 53.7383 112.418 53.5586C113.152 53.3711 114.004 53.2773 114.973 53.2773H116.93ZM125.859 51.0859V61H122.484V48.3203H125.66L125.859 51.0859ZM129.68 48.2383L129.621 51.3672C129.457 51.3438 129.258 51.3242 129.023 51.3086C128.797 51.2852 128.59 51.2734 128.402 51.2734C127.926 51.2734 127.512 51.3359 127.16 51.4609C126.816 51.5781 126.527 51.7539 126.293 51.9883C126.066 52.2227 125.895 52.5078 125.777 52.8438C125.668 53.1797 125.605 53.5625 125.59 53.9922L124.91 53.7812C124.91 52.9609 124.992 52.207 125.156 51.5195C125.32 50.8242 125.559 50.2188 125.871 49.7031C126.191 49.1875 126.582 48.7891 127.043 48.5078C127.504 48.2266 128.031 48.0859 128.625 48.0859C128.812 48.0859 129.004 48.1016 129.199 48.1328C129.395 48.1562 129.555 48.1914 129.68 48.2383ZM137.719 58.1406V52.4922C137.719 52.0859 137.652 51.7383 137.52 51.4492C137.387 51.1523 137.18 50.9219 136.898 50.7578C136.625 50.5938 136.27 50.5117 135.832 50.5117C135.457 50.5117 135.133 50.5781 134.859 50.7109C134.586 50.8359 134.375 51.0195 134.227 51.2617C134.078 51.4961 134.004 51.7734 134.004 52.0938H130.629C130.629 51.5547 130.754 51.043 131.004 50.5586C131.254 50.0742 131.617 49.6484 132.094 49.2812C132.57 48.9062 133.137 48.6133 133.793 48.4023C134.457 48.1914 135.199 48.0859 136.02 48.0859C137.004 48.0859 137.879 48.25 138.645 48.5781C139.41 48.9062 140.012 49.3984 140.449 50.0547C140.895 50.7109 141.117 51.5312 141.117 52.5156V57.9414C141.117 58.6367 141.16 59.207 141.246 59.6523C141.332 60.0898 141.457 60.4727 141.621 60.8008V61H138.211C138.047 60.6562 137.922 60.2266 137.836 59.7109C137.758 59.1875 137.719 58.6641 137.719 58.1406ZM138.164 53.2773L138.188 55.1875H136.301C135.855 55.1875 135.469 55.2383 135.141 55.3398C134.812 55.4414 134.543 55.5859 134.332 55.7734C134.121 55.9531 133.965 56.1641 133.863 56.4062C133.77 56.6484 133.723 56.9141 133.723 57.2031C133.723 57.4922 133.789 57.7539 133.922 57.9883C134.055 58.2148 134.246 58.3945 134.496 58.5273C134.746 58.6523 135.039 58.7148 135.375 58.7148C135.883 58.7148 136.324 58.6133 136.699 58.4102C137.074 58.207 137.363 57.957 137.566 57.6602C137.777 57.3633 137.887 57.082 137.895 56.8164L138.785 58.2461C138.66 58.5664 138.488 58.8984 138.27 59.2422C138.059 59.5859 137.789 59.9102 137.461 60.2148C137.133 60.5117 136.738 60.7578 136.277 60.9531C135.816 61.1406 135.27 61.2344 134.637 61.2344C133.832 61.2344 133.102 61.0742 132.445 60.7539C131.797 60.4258 131.281 59.9766 130.898 59.4062C130.523 58.8281 130.336 58.1719 130.336 57.4375C130.336 56.7734 130.461 56.1836 130.711 55.668C130.961 55.1523 131.328 54.7188 131.812 54.3672C132.305 54.0078 132.918 53.7383 133.652 53.5586C134.387 53.3711 135.238 53.2773 136.207 53.2773H138.164ZM147.281 43V61H143.895V43H147.281ZM153.633 43V61H150.246V43H153.633ZM163.266 58.1406V52.4922C163.266 52.0859 163.199 51.7383 163.066 51.4492C162.934 51.1523 162.727 50.9219 162.445 50.7578C162.172 50.5938 161.816 50.5117 161.379 50.5117C161.004 50.5117 160.68 50.5781 160.406 50.7109C160.133 50.8359 159.922 51.0195 159.773 51.2617C159.625 51.4961 159.551 51.7734 159.551 52.0938H156.176C156.176 51.5547 156.301 51.043 156.551 50.5586C156.801 50.0742 157.164 49.6484 157.641 49.2812C158.117 48.9062 158.684 48.6133 159.34 48.4023C160.004 48.1914 160.746 48.0859 161.566 48.0859C162.551 48.0859 163.426 48.25 164.191 48.5781C164.957 48.9062 165.559 49.3984 165.996 50.0547C166.441 50.7109 166.664 51.5312 166.664 52.5156V57.9414C166.664 58.6367 166.707 59.207 166.793 59.6523C166.879 60.0898 167.004 60.4727 167.168 60.8008V61H163.758C163.594 60.6562 163.469 60.2266 163.383 59.7109C163.305 59.1875 163.266 58.6641 163.266 58.1406ZM163.711 53.2773L163.734 55.1875H161.848C161.402 55.1875 161.016 55.2383 160.688 55.3398C160.359 55.4414 160.09 55.5859 159.879 55.7734C159.668 55.9531 159.512 56.1641 159.41 56.4062C159.316 56.6484 159.27 56.9141 159.27 57.2031C159.27 57.4922 159.336 57.7539 159.469 57.9883C159.602 58.2148 159.793 58.3945 160.043 58.5273C160.293 58.6523 160.586 58.7148 160.922 58.7148C161.43 58.7148 161.871 58.6133 162.246 58.4102C162.621 58.207 162.91 57.957 163.113 57.6602C163.324 57.3633 163.434 57.082 163.441 56.8164L164.332 58.2461C164.207 58.5664 164.035 58.8984 163.816 59.2422C163.605 59.5859 163.336 59.9102 163.008 60.2148C162.68 60.5117 162.285 60.7578 161.824 60.9531C161.363 61.1406 160.816 61.2344 160.184 61.2344C159.379 61.2344 158.648 61.0742 157.992 60.7539C157.344 60.4258 156.828 59.9766 156.445 59.4062C156.07 58.8281 155.883 58.1719 155.883 57.4375C155.883 56.7734 156.008 56.1836 156.258 55.668C156.508 55.1523 156.875 54.7188 157.359 54.3672C157.852 54.0078 158.465 53.7383 159.199 53.5586C159.934 53.3711 160.785 53.2773 161.754 53.2773H163.711ZM171.984 48.3203L174.082 52.1758L176.238 48.3203H179.836L176.25 54.5195L180 61H176.391L174.105 56.9219L171.82 61H168.211L171.961 54.5195L168.375 48.3203H171.984ZM188.133 52.3516V55H181.512V52.3516H188.133ZM195.27 58.293L198.668 43.9375H200.566L201 46.3281L197.379 61H195.34L195.27 58.293ZM193.523 43.9375L196.336 58.293L196.102 61H193.828L190.043 43.9375H193.523ZM203.988 58.2344L206.766 43.9375H210.246L206.473 61H204.199L203.988 58.2344ZM201.633 43.9375L205.055 58.3516L204.961 61H202.922L199.277 46.3164L199.746 43.9375H201.633ZM217.406 61.2344C216.422 61.2344 215.539 61.0781 214.758 60.7656C213.977 60.4453 213.312 60.0039 212.766 59.4414C212.227 58.8789 211.812 58.2266 211.523 57.4844C211.234 56.7344 211.09 55.9375 211.09 55.0938V54.625C211.09 53.6641 211.227 52.7852 211.5 51.9883C211.773 51.1914 212.164 50.5 212.672 49.9141C213.188 49.3281 213.812 48.8789 214.547 48.5664C215.281 48.2461 216.109 48.0859 217.031 48.0859C217.93 48.0859 218.727 48.2344 219.422 48.5312C220.117 48.8281 220.699 49.25 221.168 49.7969C221.645 50.3438 222.004 51 222.246 51.7656C222.488 52.5234 222.609 53.3672 222.609 54.2969V55.7031H212.531V53.4531H219.293V53.1953C219.293 52.7266 219.207 52.3086 219.035 51.9414C218.871 51.5664 218.621 51.2695 218.285 51.0508C217.949 50.832 217.52 50.7227 216.996 50.7227C216.551 50.7227 216.168 50.8203 215.848 51.0156C215.527 51.2109 215.266 51.4844 215.062 51.8359C214.867 52.1875 214.719 52.6016 214.617 53.0781C214.523 53.5469 214.477 54.0625 214.477 54.625V55.0938C214.477 55.6016 214.547 56.0703 214.688 56.5C214.836 56.9297 215.043 57.3008 215.309 57.6133C215.582 57.9258 215.91 58.168 216.293 58.3398C216.684 58.5117 217.125 58.5977 217.617 58.5977C218.227 58.5977 218.793 58.4805 219.316 58.2461C219.848 58.0039 220.305 57.6406 220.688 57.1562L222.328 58.9375C222.062 59.3203 221.699 59.6875 221.238 60.0391C220.785 60.3906 220.238 60.6797 219.598 60.9062C218.957 61.125 218.227 61.2344 217.406 61.2344ZM224.531 43H227.906V58.0938L227.566 61H224.531V43ZM235.934 54.5312V54.7773C235.934 55.7227 235.832 56.5898 235.629 57.3789C235.434 58.168 235.129 58.8516 234.715 59.4297C234.301 60 233.785 60.4453 233.168 60.7656C232.559 61.0781 231.84 61.2344 231.012 61.2344C230.238 61.2344 229.566 61.0781 228.996 60.7656C228.434 60.4531 227.961 60.0117 227.578 59.4414C227.195 58.8711 226.887 58.2031 226.652 57.4375C226.418 56.6719 226.242 55.8359 226.125 54.9297V54.3906C226.242 53.4844 226.418 52.6484 226.652 51.8828C226.887 51.1172 227.195 50.4492 227.578 49.8789C227.961 49.3086 228.434 48.8672 228.996 48.5547C229.559 48.2422 230.223 48.0859 230.988 48.0859C231.824 48.0859 232.551 48.2461 233.168 48.5664C233.793 48.8789 234.309 49.3242 234.715 49.9023C235.129 50.4727 235.434 51.1523 235.629 51.9414C235.832 52.7227 235.934 53.5859 235.934 54.5312ZM232.559 54.7773V54.5312C232.559 54.0156 232.52 53.5312 232.441 53.0781C232.371 52.6172 232.246 52.2148 232.066 51.8711C231.887 51.5195 231.641 51.2422 231.328 51.0391C231.023 50.8359 230.629 50.7344 230.145 50.7344C229.684 50.7344 229.293 50.8125 228.973 50.9688C228.652 51.125 228.387 51.3438 228.176 51.625C227.973 51.9062 227.82 52.2422 227.719 52.6328C227.617 53.0156 227.555 53.4375 227.531 53.8984V55.4336C227.555 56.0508 227.656 56.5977 227.836 57.0742C228.023 57.543 228.305 57.9141 228.68 58.1875C229.062 58.4531 229.559 58.5859 230.168 58.5859C230.645 58.5859 231.039 58.4922 231.352 58.3047C231.664 58.1172 231.906 57.8516 232.078 57.5078C232.258 57.1641 232.383 56.7617 232.453 56.3008C232.523 55.832 232.559 55.3242 232.559 54.7773ZM244.887 57.4961C244.887 57.2539 244.816 57.0352 244.676 56.8398C244.535 56.6445 244.273 56.4648 243.891 56.3008C243.516 56.1289 242.973 55.9727 242.262 55.832C241.621 55.6914 241.023 55.5156 240.469 55.3047C239.922 55.0859 239.445 54.8242 239.039 54.5195C238.641 54.2148 238.328 53.8555 238.102 53.4414C237.875 53.0195 237.762 52.5391 237.762 52C237.762 51.4688 237.875 50.9688 238.102 50.5C238.336 50.0312 238.668 49.6172 239.098 49.2578C239.535 48.8906 240.066 48.6055 240.691 48.4023C241.324 48.1914 242.035 48.0859 242.824 48.0859C243.926 48.0859 244.871 48.2617 245.66 48.6133C246.457 48.9648 247.066 49.4492 247.488 50.0664C247.918 50.6758 248.133 51.3711 248.133 52.1523H244.758C244.758 51.8242 244.688 51.5312 244.547 51.2734C244.414 51.0078 244.203 50.8008 243.914 50.6523C243.633 50.4961 243.266 50.418 242.812 50.418C242.438 50.418 242.113 50.4844 241.84 50.6172C241.566 50.7422 241.355 50.9141 241.207 51.1328C241.066 51.3438 240.996 51.5781 240.996 51.8359C240.996 52.0312 241.035 52.207 241.113 52.3633C241.199 52.5117 241.336 52.6484 241.523 52.7734C241.711 52.8984 241.953 53.0156 242.25 53.125C242.555 53.2266 242.93 53.3203 243.375 53.4062C244.289 53.5938 245.105 53.8398 245.824 54.1445C246.543 54.4414 247.113 54.8477 247.535 55.3633C247.957 55.8711 248.168 56.5391 248.168 57.3672C248.168 57.9297 248.043 58.4453 247.793 58.9141C247.543 59.3828 247.184 59.793 246.715 60.1445C246.246 60.4883 245.684 60.7578 245.027 60.9531C244.379 61.1406 243.648 61.2344 242.836 61.2344C241.656 61.2344 240.656 61.0234 239.836 60.6016C239.023 60.1797 238.406 59.6445 237.984 58.9961C237.57 58.3398 237.363 57.668 237.363 56.9805H240.562C240.578 57.4414 240.695 57.8125 240.914 58.0938C241.141 58.375 241.426 58.5781 241.77 58.7031C242.121 58.8281 242.5 58.8906 242.906 58.8906C243.344 58.8906 243.707 58.832 243.996 58.7148C244.285 58.5898 244.504 58.4258 244.652 58.2227C244.809 58.0117 244.887 57.7695 244.887 57.4961ZM253.922 48.3203V61H250.535V48.3203H253.922ZM250.324 45.0156C250.324 44.5234 250.496 44.1172 250.84 43.7969C251.184 43.4766 251.645 43.3164 252.223 43.3164C252.793 43.3164 253.25 43.4766 253.594 43.7969C253.945 44.1172 254.121 44.5234 254.121 45.0156C254.121 45.5078 253.945 45.9141 253.594 46.2344C253.25 46.5547 252.793 46.7148 252.223 46.7148C251.645 46.7148 251.184 46.5547 250.84 46.2344C250.496 45.9141 250.324 45.5078 250.324 45.0156ZM262.922 48.3203V50.7109H255.539V48.3203H262.922ZM257.367 45.1914H260.742V57.1797C260.742 57.5469 260.789 57.8281 260.883 58.0234C260.984 58.2188 261.133 58.3555 261.328 58.4336C261.523 58.5039 261.77 58.5391 262.066 58.5391C262.277 58.5391 262.465 58.5312 262.629 58.5156C262.801 58.4922 262.945 58.4688 263.062 58.4453L263.074 60.9297C262.785 61.0234 262.473 61.0977 262.137 61.1523C261.801 61.207 261.43 61.2344 261.023 61.2344C260.281 61.2344 259.633 61.1133 259.078 60.8711C258.531 60.6211 258.109 60.2227 257.812 59.6758C257.516 59.1289 257.367 58.4102 257.367 57.5195V45.1914ZM270.68 61.2344C269.695 61.2344 268.812 61.0781 268.031 60.7656C267.25 60.4453 266.586 60.0039 266.039 59.4414C265.5 58.8789 265.086 58.2266 264.797 57.4844C264.508 56.7344 264.363 55.9375 264.363 55.0938V54.625C264.363 53.6641 264.5 52.7852 264.773 51.9883C265.047 51.1914 265.438 50.5 265.945 49.9141C266.461 49.3281 267.086 48.8789 267.82 48.5664C268.555 48.2461 269.383 48.0859 270.305 48.0859C271.203 48.0859 272 48.2344 272.695 48.5312C273.391 48.8281 273.973 49.25 274.441 49.7969C274.918 50.3438 275.277 51 275.52 51.7656C275.762 52.5234 275.883 53.3672 275.883 54.2969V55.7031H265.805V53.4531H272.566V53.1953C272.566 52.7266 272.48 52.3086 272.309 51.9414C272.145 51.5664 271.895 51.2695 271.559 51.0508C271.223 50.832 270.793 50.7227 270.27 50.7227C269.824 50.7227 269.441 50.8203 269.121 51.0156C268.801 51.2109 268.539 51.4844 268.336 51.8359C268.141 52.1875 267.992 52.6016 267.891 53.0781C267.797 53.5469 267.75 54.0625 267.75 54.625V55.0938C267.75 55.6016 267.82 56.0703 267.961 56.5C268.109 56.9297 268.316 57.3008 268.582 57.6133C268.855 57.9258 269.184 58.168 269.566 58.3398C269.957 58.5117 270.398 58.5977 270.891 58.5977C271.5 58.5977 272.066 58.4805 272.59 58.2461C273.121 58.0039 273.578 57.6406 273.961 57.1562L275.602 58.9375C275.336 59.3203 274.973 59.6875 274.512 60.0391C274.059 60.3906 273.512 60.6797 272.871 60.9062C272.23 61.125 271.5 61.2344 270.68 61.2344Z" fill="#888888"/>
<path d="M109.219 107.422H100.734V101.07H109.219C110.375 101.07 111.312 100.875 112.031 100.484C112.75 100.094 113.273 99.5547 113.602 98.8672C113.945 98.1641 114.117 97.375 114.117 96.5C114.117 95.5625 113.945 94.6953 113.602 93.8984C113.273 93.1016 112.75 92.4609 112.031 91.9766C111.312 91.4766 110.375 91.2266 109.219 91.2266H103.828V119H95.6016V84.875H109.219C111.953 84.875 114.305 85.375 116.273 86.375C118.258 87.375 119.781 88.75 120.844 90.5C121.906 92.2344 122.438 94.2188 122.438 96.4531C122.438 98.6562 121.906 100.578 120.844 102.219C119.781 103.859 118.258 105.141 116.273 106.062C114.305 106.969 111.953 107.422 109.219 107.422ZM134.461 99.9219V119H126.562V93.6406H133.945L134.461 99.9219ZM141.961 93.4531L141.82 100.789C141.508 100.758 141.086 100.719 140.555 100.672C140.023 100.625 139.578 100.602 139.219 100.602C138.297 100.602 137.5 100.711 136.828 100.93C136.172 101.133 135.625 101.445 135.188 101.867C134.766 102.273 134.453 102.789 134.25 103.414C134.062 104.039 133.977 104.766 133.992 105.594L132.562 104.656C132.562 102.953 132.727 101.406 133.055 100.016C133.398 98.6094 133.883 97.3984 134.508 96.3828C135.133 95.3516 135.891 94.5625 136.781 94.0156C137.672 93.4531 138.672 93.1719 139.781 93.1719C140.172 93.1719 140.555 93.1953 140.93 93.2422C141.32 93.2891 141.664 93.3594 141.961 93.4531ZM142.852 106.578V106.086C142.852 104.227 143.117 102.516 143.648 100.953C144.18 99.375 144.961 98.0078 145.992 96.8516C147.023 95.6953 148.297 94.7969 149.812 94.1562C151.328 93.5 153.078 93.1719 155.062 93.1719C157.062 93.1719 158.82 93.5 160.336 94.1562C161.867 94.7969 163.148 95.6953 164.18 96.8516C165.211 98.0078 165.992 99.375 166.523 100.953C167.055 102.516 167.32 104.227 167.32 106.086V106.578C167.32 108.422 167.055 110.133 166.523 111.711C165.992 113.273 165.211 114.641 164.18 115.812C163.148 116.969 161.875 117.867 160.359 118.508C158.844 119.148 157.094 119.469 155.109 119.469C153.125 119.469 151.367 119.148 149.836 118.508C148.305 117.867 147.023 116.969 145.992 115.812C144.961 114.641 144.18 113.273 143.648 111.711C143.117 110.133 142.852 108.422 142.852 106.578ZM150.75 106.086V106.578C150.75 107.531 150.82 108.422 150.961 109.25C151.102 110.078 151.336 110.805 151.664 111.43C151.992 112.039 152.438 112.516 153 112.859C153.562 113.203 154.266 113.375 155.109 113.375C155.938 113.375 156.625 113.203 157.172 112.859C157.734 112.516 158.18 112.039 158.508 111.43C158.836 110.805 159.07 110.078 159.211 109.25C159.352 108.422 159.422 107.531 159.422 106.578V106.086C159.422 105.164 159.352 104.297 159.211 103.484C159.07 102.656 158.836 101.93 158.508 101.305C158.18 100.664 157.734 100.164 157.172 99.8047C156.609 99.4453 155.906 99.2656 155.062 99.2656C154.234 99.2656 153.539 99.4453 152.977 99.8047C152.43 100.164 151.992 100.664 151.664 101.305C151.336 101.93 151.102 102.656 150.961 103.484C150.82 104.297 150.75 105.164 150.75 106.086ZM171.422 93.6406H179.344V119.82C179.344 121.852 178.953 123.562 178.172 124.953C177.391 126.359 176.273 127.422 174.82 128.141C173.367 128.875 171.633 129.242 169.617 129.242C168.945 129.242 168.328 129.211 167.766 129.148C167.188 129.102 166.555 129 165.867 128.844V122.867C166.273 122.93 166.648 122.977 166.992 123.008C167.336 123.055 167.711 123.078 168.117 123.078C168.836 123.078 169.438 122.961 169.922 122.727C170.406 122.492 170.773 122.133 171.023 121.648C171.289 121.164 171.422 120.555 171.422 119.82V93.6406ZM170.836 87.1016C170.836 85.9766 171.242 85.0547 172.055 84.3359C172.867 83.6172 173.922 83.2578 175.219 83.2578C176.516 83.2578 177.57 83.6172 178.383 84.3359C179.195 85.0547 179.602 85.9766 179.602 87.1016C179.602 88.2266 179.195 89.1484 178.383 89.8672C177.57 90.5859 176.516 90.9453 175.219 90.9453C173.922 90.9453 172.867 90.5859 172.055 89.8672C171.242 89.1484 170.836 88.2266 170.836 87.1016ZM196.102 119.469C194.039 119.469 192.195 119.148 190.57 118.508C188.945 117.852 187.57 116.953 186.445 115.812C185.336 114.672 184.484 113.359 183.891 111.875C183.312 110.391 183.023 108.82 183.023 107.164V106.273C183.023 104.414 183.281 102.695 183.797 101.117C184.312 99.5234 185.078 98.1328 186.094 96.9453C187.109 95.7578 188.383 94.8359 189.914 94.1797C191.445 93.5078 193.227 93.1719 195.258 93.1719C197.055 93.1719 198.664 93.4609 200.086 94.0391C201.508 94.6172 202.711 95.4453 203.695 96.5234C204.695 97.6016 205.453 98.9062 205.969 100.438C206.5 101.969 206.766 103.688 206.766 105.594V108.805H186.047V103.859H199.055V103.25C199.07 102.406 198.922 101.688 198.609 101.094C198.312 100.5 197.875 100.047 197.297 99.7344C196.719 99.4219 196.016 99.2656 195.188 99.2656C194.328 99.2656 193.617 99.4531 193.055 99.8281C192.508 100.203 192.078 100.719 191.766 101.375C191.469 102.016 191.258 102.758 191.133 103.602C191.008 104.445 190.945 105.336 190.945 106.273V107.164C190.945 108.102 191.07 108.953 191.32 109.719C191.586 110.484 191.961 111.141 192.445 111.688C192.945 112.219 193.539 112.633 194.227 112.93C194.93 113.227 195.727 113.375 196.617 113.375C197.695 113.375 198.758 113.172 199.805 112.766C200.852 112.359 201.75 111.688 202.5 110.75L206.086 115.016C205.57 115.75 204.836 116.461 203.883 117.148C202.945 117.836 201.82 118.398 200.508 118.836C199.195 119.258 197.727 119.469 196.102 119.469ZM220.688 113.375C221.422 113.375 222.047 113.242 222.562 112.977C223.094 112.695 223.492 112.305 223.758 111.805C224.039 111.289 224.172 110.672 224.156 109.953H231.586C231.602 111.859 231.133 113.531 230.18 114.969C229.242 116.391 227.961 117.5 226.336 118.297C224.727 119.078 222.906 119.469 220.875 119.469C218.891 119.469 217.156 119.148 215.672 118.508C214.188 117.852 212.945 116.945 211.945 115.789C210.961 114.617 210.219 113.25 209.719 111.688C209.234 110.125 208.992 108.43 208.992 106.602V106.062C208.992 104.234 209.234 102.539 209.719 100.977C210.219 99.3984 210.961 98.0312 211.945 96.875C212.945 95.7031 214.18 94.7969 215.648 94.1562C217.133 93.5 218.859 93.1719 220.828 93.1719C222.938 93.1719 224.797 93.5703 226.406 94.3672C228.031 95.1641 229.305 96.3203 230.227 97.8359C231.148 99.3516 231.602 101.188 231.586 103.344H224.156C224.172 102.578 224.055 101.891 223.805 101.281C223.555 100.672 223.164 100.188 222.633 99.8281C222.117 99.4531 221.453 99.2656 220.641 99.2656C219.828 99.2656 219.172 99.4453 218.672 99.8047C218.172 100.164 217.789 100.664 217.523 101.305C217.273 101.93 217.102 102.648 217.008 103.461C216.93 104.273 216.891 105.141 216.891 106.062V106.602C216.891 107.539 216.93 108.422 217.008 109.25C217.102 110.062 217.281 110.781 217.547 111.406C217.812 112.016 218.195 112.5 218.695 112.859C219.195 113.203 219.859 113.375 220.688 113.375ZM248.32 93.6406V99.125H233.039V93.6406H248.32ZM236.25 87.3359H244.148V110.727C244.148 111.398 244.227 111.922 244.383 112.297C244.539 112.656 244.805 112.914 245.18 113.07C245.57 113.211 246.086 113.281 246.727 113.281C247.18 113.281 247.555 113.273 247.852 113.258C248.148 113.227 248.43 113.188 248.695 113.141V118.789C248.023 119.008 247.32 119.172 246.586 119.281C245.852 119.406 245.07 119.469 244.242 119.469C242.555 119.469 241.109 119.203 239.906 118.672C238.719 118.141 237.812 117.305 237.188 116.164C236.562 115.023 236.25 113.539 236.25 111.711V87.3359ZM274.875 119H267.305L267.352 112.672H274.875C276.438 112.672 277.758 112.297 278.836 111.547C279.93 110.797 280.758 109.68 281.32 108.195C281.898 106.695 282.188 104.852 282.188 102.664V101.188C282.188 99.5469 282.023 98.1094 281.695 96.875C281.383 95.625 280.914 94.5859 280.289 93.7578C279.664 92.9141 278.883 92.2812 277.945 91.8594C277.023 91.4375 275.961 91.2266 274.758 91.2266H267.164V84.875H274.758C277.07 84.875 279.188 85.2734 281.109 86.0703C283.047 86.8516 284.719 87.9766 286.125 89.4453C287.547 90.8984 288.641 92.625 289.406 94.625C290.188 96.6094 290.578 98.8125 290.578 101.234V102.664C290.578 105.07 290.188 107.273 289.406 109.273C288.641 111.273 287.555 113 286.148 114.453C284.742 115.906 283.078 117.031 281.156 117.828C279.25 118.609 277.156 119 274.875 119ZM272.016 84.875V119H263.789V84.875H272.016ZM306.773 119.469C304.711 119.469 302.867 119.148 301.242 118.508C299.617 117.852 298.242 116.953 297.117 115.812C296.008 114.672 295.156 113.359 294.562 111.875C293.984 110.391 293.695 108.82 293.695 107.164V106.273C293.695 104.414 293.953 102.695 294.469 101.117C294.984 99.5234 295.75 98.1328 296.766 96.9453C297.781 95.7578 299.055 94.8359 300.586 94.1797C302.117 93.5078 303.898 93.1719 305.93 93.1719C307.727 93.1719 309.336 93.4609 310.758 94.0391C312.18 94.6172 313.383 95.4453 314.367 96.5234C315.367 97.6016 316.125 98.9062 316.641 100.438C317.172 101.969 317.438 103.688 317.438 105.594V108.805H296.719V103.859H309.727V103.25C309.742 102.406 309.594 101.688 309.281 101.094C308.984 100.5 308.547 100.047 307.969 99.7344C307.391 99.4219 306.688 99.2656 305.859 99.2656C305 99.2656 304.289 99.4531 303.727 99.8281C303.18 100.203 302.75 100.719 302.438 101.375C302.141 102.016 301.93 102.758 301.805 103.602C301.68 104.445 301.617 105.336 301.617 106.273V107.164C301.617 108.102 301.742 108.953 301.992 109.719C302.258 110.484 302.633 111.141 303.117 111.688C303.617 112.219 304.211 112.633 304.898 112.93C305.602 113.227 306.398 113.375 307.289 113.375C308.367 113.375 309.43 113.172 310.477 112.766C311.523 112.359 312.422 111.688 313.172 110.75L316.758 115.016C316.242 115.75 315.508 116.461 314.555 117.148C313.617 117.836 312.492 118.398 311.18 118.836C309.867 119.258 308.398 119.469 306.773 119.469ZM333.938 111.875C333.938 111.438 333.789 111.062 333.492 110.75C333.211 110.422 332.711 110.125 331.992 109.859C331.273 109.578 330.266 109.297 328.969 109.016C327.734 108.75 326.57 108.398 325.477 107.961C324.398 107.523 323.453 106.992 322.641 106.367C321.828 105.742 321.188 105 320.719 104.141C320.266 103.281 320.039 102.297 320.039 101.188C320.039 100.109 320.266 99.0938 320.719 98.1406C321.188 97.1719 321.867 96.3203 322.758 95.5859C323.664 94.8359 324.766 94.25 326.062 93.8281C327.359 93.3906 328.836 93.1719 330.492 93.1719C332.773 93.1719 334.742 93.5234 336.398 94.2266C338.055 94.9141 339.328 95.8828 340.219 97.1328C341.125 98.3672 341.578 99.7969 341.578 101.422H333.68C333.68 100.781 333.57 100.234 333.352 99.7812C333.148 99.3281 332.812 98.9844 332.344 98.75C331.875 98.5 331.25 98.375 330.469 98.375C329.922 98.375 329.422 98.4766 328.969 98.6797C328.531 98.8828 328.18 99.1641 327.914 99.5234C327.648 99.8828 327.516 100.305 327.516 100.789C327.516 101.133 327.594 101.445 327.75 101.727C327.922 101.992 328.18 102.242 328.523 102.477C328.867 102.695 329.305 102.898 329.836 103.086C330.367 103.258 331.008 103.414 331.758 103.555C333.461 103.867 335.055 104.312 336.539 104.891C338.023 105.469 339.227 106.289 340.148 107.352C341.086 108.414 341.555 109.844 341.555 111.641C341.555 112.766 341.297 113.805 340.781 114.758C340.266 115.695 339.523 116.523 338.555 117.242C337.586 117.945 336.422 118.492 335.062 118.883C333.703 119.273 332.172 119.469 330.469 119.469C328.047 119.469 326 119.039 324.328 118.18C322.656 117.305 321.391 116.211 320.531 114.898C319.688 113.57 319.266 112.227 319.266 110.867H326.625C326.656 111.648 326.844 112.289 327.188 112.789C327.547 113.289 328.023 113.656 328.617 113.891C329.211 114.125 329.898 114.242 330.68 114.242C331.398 114.242 331.992 114.141 332.461 113.938C332.945 113.734 333.312 113.461 333.562 113.117C333.812 112.758 333.938 112.344 333.938 111.875ZM355.969 113.375C356.703 113.375 357.328 113.242 357.844 112.977C358.375 112.695 358.773 112.305 359.039 111.805C359.32 111.289 359.453 110.672 359.438 109.953H366.867C366.883 111.859 366.414 113.531 365.461 114.969C364.523 116.391 363.242 117.5 361.617 118.297C360.008 119.078 358.188 119.469 356.156 119.469C354.172 119.469 352.438 119.148 350.953 118.508C349.469 117.852 348.227 116.945 347.227 115.789C346.242 114.617 345.5 113.25 345 111.688C344.516 110.125 344.273 108.43 344.273 106.602V106.062C344.273 104.234 344.516 102.539 345 100.977C345.5 99.3984 346.242 98.0312 347.227 96.875C348.227 95.7031 349.461 94.7969 350.93 94.1562C352.414 93.5 354.141 93.1719 356.109 93.1719C358.219 93.1719 360.078 93.5703 361.688 94.3672C363.312 95.1641 364.586 96.3203 365.508 97.8359C366.43 99.3516 366.883 101.188 366.867 103.344H359.438C359.453 102.578 359.336 101.891 359.086 101.281C358.836 100.672 358.445 100.188 357.914 99.8281C357.398 99.4531 356.734 99.2656 355.922 99.2656C355.109 99.2656 354.453 99.4453 353.953 99.8047C353.453 100.164 353.07 100.664 352.805 101.305C352.555 101.93 352.383 102.648 352.289 103.461C352.211 104.273 352.172 105.141 352.172 106.062V106.602C352.172 107.539 352.211 108.422 352.289 109.25C352.383 110.062 352.562 110.781 352.828 111.406C353.094 112.016 353.477 112.5 353.977 112.859C354.477 113.203 355.141 113.375 355.969 113.375ZM378.211 99.9219V119H370.312V93.6406H377.695L378.211 99.9219ZM385.711 93.4531L385.57 100.789C385.258 100.758 384.836 100.719 384.305 100.672C383.773 100.625 383.328 100.602 382.969 100.602C382.047 100.602 381.25 100.711 380.578 100.93C379.922 101.133 379.375 101.445 378.938 101.867C378.516 102.273 378.203 102.789 378 103.414C377.812 104.039 377.727 104.766 377.742 105.594L376.312 104.656C376.312 102.953 376.477 101.406 376.805 100.016C377.148 98.6094 377.633 97.3984 378.258 96.3828C378.883 95.3516 379.641 94.5625 380.531 94.0156C381.422 93.4531 382.422 93.1719 383.531 93.1719C383.922 93.1719 384.305 93.1953 384.68 93.2422C385.07 93.2891 385.414 93.3594 385.711 93.4531ZM396.773 93.6406V119H388.852V93.6406H396.773ZM388.383 87.1016C388.383 85.9766 388.789 85.0547 389.602 84.3359C390.414 83.6172 391.469 83.2578 392.766 83.2578C394.062 83.2578 395.117 83.6172 395.93 84.3359C396.742 85.0547 397.148 85.9766 397.148 87.1016C397.148 88.2266 396.742 89.1484 395.93 89.8672C395.117 90.5859 394.062 90.9453 392.766 90.9453C391.469 90.9453 390.414 90.5859 389.602 89.8672C388.789 89.1484 388.383 88.2266 388.383 87.1016ZM409.617 98.5156V128.75H401.719V93.6406H409.078L409.617 98.5156ZM425.18 106.016V106.508C425.18 108.352 424.969 110.062 424.547 111.641C424.125 113.219 423.5 114.594 422.672 115.766C421.844 116.938 420.812 117.852 419.578 118.508C418.359 119.148 416.945 119.469 415.336 119.469C413.82 119.469 412.516 119.133 411.422 118.461C410.328 117.789 409.414 116.859 408.68 115.672C407.945 114.484 407.352 113.125 406.898 111.594C406.445 110.062 406.086 108.445 405.82 106.742V106.109C406.086 104.281 406.445 102.586 406.898 101.023C407.352 99.4453 407.945 98.0703 408.68 96.8984C409.414 95.7266 410.32 94.8125 411.398 94.1562C412.492 93.5 413.797 93.1719 415.312 93.1719C416.922 93.1719 418.336 93.4766 419.555 94.0859C420.789 94.6953 421.82 95.5703 422.648 96.7109C423.492 97.8359 424.125 99.1875 424.547 100.766C424.969 102.344 425.18 104.094 425.18 106.016ZM417.281 106.508V106.016C417.281 105.031 417.211 104.133 417.07 103.32C416.93 102.492 416.703 101.773 416.391 101.164C416.094 100.555 415.695 100.086 415.195 99.7578C414.695 99.4297 414.078 99.2656 413.344 99.2656C412.5 99.2656 411.789 99.3984 411.211 99.6641C410.648 99.9141 410.195 100.305 409.852 100.836C409.523 101.352 409.289 102 409.148 102.781C409.023 103.547 408.969 104.445 408.984 105.477V107.398C408.953 108.586 409.07 109.633 409.336 110.539C409.602 111.43 410.062 112.125 410.719 112.625C411.375 113.125 412.266 113.375 413.391 113.375C414.141 113.375 414.766 113.203 415.266 112.859C415.766 112.5 416.164 112.008 416.461 111.383C416.758 110.742 416.969 110.008 417.094 109.18C417.219 108.352 417.281 107.461 417.281 106.508ZM442.055 93.6406V99.125H426.773V93.6406H442.055ZM429.984 87.3359H437.883V110.727C437.883 111.398 437.961 111.922 438.117 112.297C438.273 112.656 438.539 112.914 438.914 113.07C439.305 113.211 439.82 113.281 440.461 113.281C440.914 113.281 441.289 113.273 441.586 113.258C441.883 113.227 442.164 113.188 442.43 113.141V118.789C441.758 119.008 441.055 119.172 440.32 119.281C439.586 119.406 438.805 119.469 437.977 119.469C436.289 119.469 434.844 119.203 433.641 118.672C432.453 118.141 431.547 117.305 430.922 116.164C430.297 115.023 429.984 113.539 429.984 111.711V87.3359ZM453.539 93.6406V119H445.617V93.6406H453.539ZM445.148 87.1016C445.148 85.9766 445.555 85.0547 446.367 84.3359C447.18 83.6172 448.234 83.2578 449.531 83.2578C450.828 83.2578 451.883 83.6172 452.695 84.3359C453.508 85.0547 453.914 85.9766 453.914 87.1016C453.914 88.2266 453.508 89.1484 452.695 89.8672C451.883 90.5859 450.828 90.9453 449.531 90.9453C448.234 90.9453 447.18 90.5859 446.367 89.8672C445.555 89.1484 445.148 88.2266 445.148 87.1016ZM457.43 106.578V106.086C457.43 104.227 457.695 102.516 458.227 100.953C458.758 99.375 459.539 98.0078 460.57 96.8516C461.602 95.6953 462.875 94.7969 464.391 94.1562C465.906 93.5 467.656 93.1719 469.641 93.1719C471.641 93.1719 473.398 93.5 474.914 94.1562C476.445 94.7969 477.727 95.6953 478.758 96.8516C479.789 98.0078 480.57 99.375 481.102 100.953C481.633 102.516 481.898 104.227 481.898 106.086V106.578C481.898 108.422 481.633 110.133 481.102 111.711C480.57 113.273 479.789 114.641 478.758 115.812C477.727 116.969 476.453 117.867 474.938 118.508C473.422 119.148 471.672 119.469 469.688 119.469C467.703 119.469 465.945 119.148 464.414 118.508C462.883 117.867 461.602 116.969 460.57 115.812C459.539 114.641 458.758 113.273 458.227 111.711C457.695 110.133 457.43 108.422 457.43 106.578ZM465.328 106.086V106.578C465.328 107.531 465.398 108.422 465.539 109.25C465.68 110.078 465.914 110.805 466.242 111.43C466.57 112.039 467.016 112.516 467.578 112.859C468.141 113.203 468.844 113.375 469.688 113.375C470.516 113.375 471.203 113.203 471.75 112.859C472.312 112.516 472.758 112.039 473.086 111.43C473.414 110.805 473.648 110.078 473.789 109.25C473.93 108.422 474 107.531 474 106.578V106.086C474 105.164 473.93 104.297 473.789 103.484C473.648 102.656 473.414 101.93 473.086 101.305C472.758 100.664 472.312 100.164 471.75 99.8047C471.188 99.4453 470.484 99.2656 469.641 99.2656C468.812 99.2656 468.117 99.4453 467.555 99.8047C467.008 100.164 466.57 100.664 466.242 101.305C465.914 101.93 465.68 102.656 465.539 103.484C465.398 104.297 465.328 105.164 465.328 106.086ZM493.172 99.0547V119H485.273V93.6406H492.68L493.172 99.0547ZM492.234 105.453L490.383 105.5C490.383 103.562 490.617 101.836 491.086 100.32C491.555 98.7891 492.219 97.4922 493.078 96.4297C493.938 95.3672 494.961 94.5625 496.148 94.0156C497.352 93.4531 498.688 93.1719 500.156 93.1719C501.328 93.1719 502.398 93.3438 503.367 93.6875C504.352 94.0312 505.195 94.5859 505.898 95.3516C506.617 96.1172 507.164 97.1328 507.539 98.3984C507.93 99.6484 508.125 101.195 508.125 103.039V119H500.18V103.016C500.18 102 500.039 101.227 499.758 100.695C499.477 100.148 499.07 99.7734 498.539 99.5703C498.008 99.3672 497.359 99.2656 496.594 99.2656C495.781 99.2656 495.094 99.4219 494.531 99.7344C493.969 100.047 493.516 100.484 493.172 101.047C492.844 101.594 492.602 102.242 492.445 102.992C492.305 103.742 492.234 104.562 492.234 105.453Z" fill="black"/>
<path d="M1134 0H1348C1356.28 0 1363 6.71573 1363 15V148C1363 156.284 1356.28 163 1348 163H1134V0Z" fill="#221891"/>
<path d="M1234.26 103.786H1262.74V109.357H1234.26V103.786ZM1239.96 114.929H1257.04V120.5H1239.96V114.929ZM1248.5 42.5C1240.95 42.5 1233.71 45.4349 1228.37 50.6592C1223.03 55.8834 1220.03 62.969 1220.03 70.3571C1219.84 74.4057 1220.63 78.4412 1222.34 82.1315C1224.05 85.8219 1226.64 89.0616 1229.88 91.5843C1232.73 94.175 1234.26 95.6514 1234.26 98.2143H1239.96C1239.96 93.0886 1236.8 90.2193 1233.72 87.4614C1231.06 85.4676 1228.94 82.8658 1227.55 79.8838C1226.15 76.9019 1225.53 73.6308 1225.72 70.3571C1225.72 64.4466 1228.12 58.7781 1232.39 54.5988C1236.67 50.4194 1242.46 48.0714 1248.5 48.0714C1254.54 48.0714 1260.33 50.4194 1264.61 54.5988C1268.88 58.7781 1271.28 64.4466 1271.28 70.3571C1271.47 73.6333 1270.84 76.9059 1269.44 79.888C1268.04 82.8701 1265.92 85.4706 1263.25 87.4614C1260.2 90.2471 1257.04 93.0329 1257.04 98.2143H1262.74C1262.74 95.6514 1264.25 94.175 1267.12 91.5564C1270.36 89.0381 1272.94 85.8031 1274.66 82.1176C1276.37 78.4321 1277.16 74.4014 1276.97 70.3571C1276.97 66.6989 1276.24 63.0765 1274.81 59.6967C1273.37 56.3169 1271.28 53.2459 1268.63 50.6592C1265.99 48.0724 1262.85 46.0205 1259.4 44.6205C1255.94 43.2205 1252.24 42.5 1248.5 42.5Z" fill="white"/>
</svg>
